<?xml version="1.0" standalone="no"?>
<!DOCTYPE svg PUBLIC "-//W3C//DTD SVG 20010904//EN"
 "http://www.w3.org/TR/2001/REC-SVG-20010904/DTD/svg10.dtd">
<svg version="1.0" xmlns="http://www.w3.org/2000/svg"
 width="1279.000000pt" height="1279.000000pt" viewBox="0 0 1279.000000 1279.000000"
 preserveAspectRatio="xMidYMid meet">
<metadata>
Created by potrace 1.11, written by Peter Selinger 2001-2013
</metadata>
<g transform="translate(0.000000,1279.000000) scale(0.100000,-0.100000)"
fill="#000000" stroke="none">
<path d="M4955 11751 c-3 -2 -56 -5 -118 -7 -120 -2 -335 -14 -371 -19 -11 -2
-48 -6 -81 -10 -71 -7 -201 -27 -285 -42 -19 -4 -44 -7 -55 -8 -40 -2 -231
-67 -269 -92 -124 -81 -173 -100 -271 -110 -66 -7 -87 -16 -262 -117 -136 -78
-230 -116 -286 -116 -28 0 -140 -56 -168 -83 -13 -13 -36 -32 -51 -42 -15 -9
-25 -21 -22 -26 3 -5 0 -8 -8 -7 -7 2 -12 -3 -10 -10 1 -8 -2 -11 -7 -8 -5 4
-18 -8 -28 -25 -10 -17 -45 -51 -78 -75 -105 -77 -168 -136 -270 -253 -55 -63
-107 -122 -116 -132 -9 -9 -36 -49 -59 -88 -23 -39 -44 -71 -47 -71 -2 0 -1 5
3 12 4 7 3 8 -4 4 -6 -4 -9 -13 -5 -21 3 -8 0 -15 -6 -15 -6 0 -10 -3 -9 -7 2
-12 -14 -67 -23 -78 -4 -6 -10 -22 -13 -35 -2 -14 -10 -47 -16 -75 -12 -51
-15 -180 -6 -225 3 -13 8 -42 11 -65 3 -22 8 -47 10 -55 3 -8 7 -53 10 -100 3
-47 8 -107 12 -135 4 -27 6 -52 6 -55 -1 -4 -38 -230 -48 -286 -1 -11 -6 -52
-10 -90 -4 -38 -8 -80 -11 -93 -2 -14 -6 -77 -9 -140 -10 -188 -12 -207 -30
-242 -10 -18 -31 -47 -47 -63 -24 -23 -29 -36 -25 -60 2 -17 1 -41 -4 -53 -26
-68 -27 -305 -3 -488 1 -11 5 -62 9 -112 7 -88 6 -95 -19 -138 -45 -76 -67
-154 -70 -250 l-1 -40 -60 -3 c-62 -4 -75 -12 -75 -48 0 -41 21 -55 90 -57
l64 -2 14 -45 c7 -25 15 -56 18 -70 3 -14 9 -29 15 -35 5 -5 9 -15 9 -23 0
-26 82 -183 145 -275 130 -193 216 -279 323 -323 74 -30 90 -52 97 -139 13
-176 28 -309 42 -370 2 -11 6 -31 9 -45 7 -38 13 -68 19 -92 38 -183 164 -477
310 -728 142 -244 174 -296 267 -440 88 -135 219 -291 373 -444 48 -48 209
-171 277 -211 127 -75 262 -160 312 -195 27 -19 76 -61 108 -93 l59 -59 -28
-36 c-62 -83 -153 -173 -339 -337 -6 -5 -42 -37 -80 -70 -123 -107 -258 -250
-337 -356 -42 -57 -98 -122 -124 -144 -135 -113 -157 -154 -158 -280 0 -49 4
-115 8 -145 14 -86 75 -280 108 -338 51 -91 78 -108 237 -151 50 -14 100 -55
126 -105 27 -50 18 -64 -147 -231 -203 -205 -234 -243 -304 -380 -97 -188
-179 -495 -209 -780 -3 -27 -7 -57 -9 -65 -2 -8 -7 -73 -11 -145 -3 -72 -7
-146 -9 -165 -1 -19 0 -41 3 -47 5 -15 42 -17 42 -3 0 6 9 1 21 -11 l21 -21
876 5 c482 3 897 7 922 10 25 3 92 8 150 12 58 3 120 9 139 11 30 5 33 4 28
-15 -6 -25 -7 -25 85 -5 40 8 108 18 150 21 65 5 85 2 127 -16 l50 -21 3490 0
c2464 0 3492 3 3496 11 4 6 13 8 19 6 7 -3 19 -1 26 3 28 18 -21 269 -85 429
-13 35 -56 121 -94 190 -94 172 -104 204 -97 316 33 473 23 1068 -19 1221 -20
71 -57 118 -223 284 -185 186 -224 233 -303 366 -54 92 -85 130 -204 250 -160
161 -182 185 -250 274 -147 194 -248 309 -351 401 -16 14 -65 66 -109 114
-194 214 -411 406 -550 487 -117 69 -267 137 -435 198 -54 20 -324 92 -392
105 -10 2 -23 7 -28 10 -6 4 -38 9 -73 12 -74 6 -191 62 -310 147 -105 75
-150 100 -232 131 -71 26 -122 47 -163 68 -13 6 -51 38 -85 70 -34 32 -78 69
-98 82 -35 23 -36 25 -35 82 0 53 -6 71 -79 218 -127 257 -382 675 -452 742
l-44 43 0 107 c-1 99 -3 112 -28 158 -16 28 -34 66 -41 85 -7 19 -18 49 -25
65 -18 39 -30 188 -29 340 0 122 2 137 30 235 19 65 23 81 39 165 10 50 6 246
-5 310 -23 126 -26 173 -14 256 7 46 15 118 18 159 3 41 13 102 22 135 15 56
19 173 8 238 -31 186 -40 286 -37 412 5 241 -29 357 -163 565 -23 36 -56 94
-73 128 -35 69 -101 264 -101 298 0 11 -4 24 -9 30 -5 5 -26 50 -47 99 -96
227 -218 399 -439 620 -126 126 -161 158 -260 240 -33 28 -62 52 -65 56 -3 3
-39 32 -80 64 -41 33 -77 62 -80 65 -19 19 -181 138 -256 188 -100 67 -133 86
-244 145 -41 22 -103 55 -138 73 -35 19 -67 32 -72 29 -4 -3 -10 -1 -12 3 -8
21 -584 205 -683 218 -68 9 -125 11 -130 5z m2652 -3113 c-3 -8 -6 -5 -6 6 -1
11 2 17 5 13 3 -3 4 -12 1 -19z m10 -40 c-3 -8 -6 -5 -6 6 -1 11 2 17 5 13 3
-3 4 -12 1 -19z m-5730 -885 c-1 -32 -6 -61 -12 -65 -7 -5 -7 -8 0 -8 6 0 11
-63 13 -162 1 -98 7 -167 14 -175 8 -10 7 -13 -2 -13 -8 0 -10 -3 -7 -7 6 -5
17 -8 60 -12 5 -1 5 -7 1 -13 -5 -10 -4 -10 6 -1 14 12 43 6 35 -8 -3 -4 4 -6
15 -4 12 2 24 -3 30 -15 13 -24 13 -33 0 -25 -6 3 -7 -1 -4 -9 3 -9 10 -14 14
-11 20 12 27 -84 8 -104 -11 -11 -10 -13 3 -8 9 3 16 0 17 -6 1 -25 11 -56 26
-85 8 -16 12 -32 9 -36 -4 -3 -2 -6 4 -6 6 0 13 -9 16 -20 4 -14 0 -20 -11
-21 -13 0 -12 -2 4 -9 19 -7 71 -120 55 -120 -9 1 -111 143 -110 154 0 5 -3
12 -8 15 -35 24 -148 225 -137 243 4 7 3 8 -4 4 -7 -4 -13 -1 -14 6 0 7 -2 18
-2 23 -1 6 -5 15 -9 22 -15 25 -47 138 -42 151 3 8 0 10 -7 6 -8 -5 -9 0 -5
16 3 13 2 30 -4 36 -12 14 -15 149 -5 181 4 12 9 32 11 45 5 24 36 98 41 98 2
0 2 -26 1 -57z m446 -883 c3 -11 1 -18 -4 -14 -5 3 -9 12 -9 20 0 20 7 17 13
-6z m35 -85 c-3 -3 -9 2 -12 12 -6 14 -5 15 5 6 7 -7 10 -15 7 -18z m-38 -46
c0 -6 7 -17 15 -26 21 -20 14 -26 -18 -14 -19 7 -24 15 -20 30 6 22 23 29 23
10z m5480 -467 c0 -5 -6 -9 -12 -9 -7 0 -31 -3 -53 -6 l-40 -6 35 14 c40 16
70 19 70 7z"/>
</g>
</svg>
